# xmcd
#
# Track frame offsets: 
#        150
#        12887
#        37074
#        66747
#        80818
#        101124
#        120355
#        136454
#        153232
#        171316
#        207971
#        223264
#        246326
#        265322
#        297665
#        318706
#        339104
#
# Disc length: 4767 seconds
#
# Revision: 0
# Processed by: cddbd v1.5.2PL0 Copyright (c) Steve Scherf et al.
# Submitted via: ExactAudioCopy v1.3
#
DISCID=12129d11
DTITLE=Various Artist - Akella Presents - vol.132 - Rockin' Blues  CD
DTITLE=1
DYEAR=2018
DGENRE=Blues
TTITLE0=Mark Robinson - Drive Real Fast
TTITLE1=Freddie Pate - Let The Juke Joint Jump
TTITLE2=Mojo Watson - Old Man Said
TTITLE3=TBelly - Tie It On My Face
TTITLE4=Dennis Jones - My Kinda Blues
TTITLE5=Chris Hicks - Too Cool For School
TTITLE6=Freddy And The Phantoms - Storm On The Riverside
TTITLE7=Midnight Creepers - Hip Shakin' Baby
TTITLE8=Dragondeer - Broadway Avenue
TTITLE9=Texas Slim - Play  It Cool
TTITLE10=Jeremiah Johnson Band - Sun Shine Through
TTITLE11=Christian Collin - Without You
TTITLE12=Smokin' Joe Kubek And Bnois King - What A Sight To See
TTITLE13=Sugar Cane Train - You Better Watch Yourself
TTITLE14=Eric Street Band - Mr. Loser
TTITLE15=Sonny Landreth - Fallin' For You
TTITLE16=Franc Robert and the Boxcar Tourists - Let's Go Jukin
EXTD=
EXTT0=
EXTT1=
EXTT2=
EXTT3=
EXTT4=
EXTT5=
EXTT6=
EXTT7=
EXTT8=
EXTT9=
EXTT10=
EXTT11=
EXTT12=
EXTT13=
EXTT14=
EXTT15=
EXTT16=
PLAYORDER=
